<?xml version="1.0" standalone="no"?>
<!DOCTYPE svg PUBLIC "-//W3C//DTD SVG 20010904//EN"
 "http://www.w3.org/TR/2001/REC-SVG-20010904/DTD/svg10.dtd">
<svg version="1.0" xmlns="http://www.w3.org/2000/svg"
 width="3676.000000pt" height="1534.000000pt" viewBox="0 0 3676.000000 1534.000000"
 preserveAspectRatio="xMidYMid meet">
<metadata>
Created by potrace 1.16, written by Peter Selinger 2001-2019
</metadata>
<g transform="translate(0.000000,1534.000000) scale(0.100000,-0.100000)"
fill="#000000" stroke="none">
<path d="M18065 14393 l-1299 -948 142 -3 142 -3 563 404 c309 223 847 610
1196 861 l634 456 46 -42 c25 -23 372 -362 771 -753 399 -391 867 -849 1040
-1018 l314 -307 133 0 c73 0 133 3 133 8 0 4 -487 480 -1081 1057 l-1081 1050
1492 3 c820 1 2160 1 2977 0 l1485 -3 -1466 -1522 -1467 -1523 -3896 -2 -3897
-3 219 -232 219 -233 129 0 129 0 -113 121 c-63 66 -120 129 -128 140 -13 19
101 19 10489 19 l10503 0 -24 -30 c-54 -68 -729 -884 -797 -962 -14 -17 -7
-18 129 -18 l144 0 170 207 c382 465 745 917 743 925 -2 4 -588 438 -1303 963
l-1300 955 -145 -3 c-140 -2 -145 -3 -148 -24 -2 -15 4 -23 20 -28 30 -10 534
-363 715 -501 379 -291 814 -614 1676 -1247 37 -27 66 -51 64 -54 -3 -2 -1666
-1 -3696 3 l-3691 7 -1459 1521 -1460 1521 1455 3 c800 1 2109 1 2909 0 l1455
-3 -313 -296 c-171 -163 -400 -376 -507 -474 -107 -99 -196 -182 -198 -187 -2
-4 61 -8 140 -8 l143 0 603 570 c332 313 606 571 610 574 3 3 -2913 6 -6479 6
l-6485 0 -1299 -947z m9206 -796 l1385 -1482 -1392 -3 c-766 -1 -2023 -1
-2794 0 l-1402 3 239 255 c131 140 760 812 1397 1493 865 925 1161 1236 1170
1228 6 -7 634 -679 1397 -1494z"/>
<path d="M19307 11002 c-75 -136 -137 -255 -137 -265 0 -15 11 -17 83 -17 l82
0 138 248 c75 136 137 255 137 265 0 15 -11 17 -83 17 l-82 0 -138 -248z"/>
<path d="M12145 11153 c-63 -19 -141 -71 -195 -129 l-42 -46 50 -51 51 -50 57
52 c141 129 230 131 505 8 162 -73 216 -87 328 -87 134 0 239 47 331 146 l42
46 -50 51 -51 50 -57 -52 c-141 -129 -230 -131 -505 -8 -79 36 -168 70 -197
76 -73 15 -207 13 -267 -6z"/>
<path d="M584 10150 c-244 -64 -426 -242 -496 -485 -29 -103 -31 -295 -5 -395
69 -261 253 -426 612 -550 307 -107 466 -216 559 -384 92 -165 98 -375 16
-542 -40 -81 -145 -181 -235 -224 -100 -48 -237 -73 -360 -67 -227 12 -384
102 -566 327 l-35 44 -37 -23 c-20 -12 -37 -30 -37 -39 0 -29 70 -123 147
-199 86 -85 196 -153 308 -190 74 -25 93 -27 250 -28 197 0 270 15 409 88 92
47 205 152 250 230 77 132 106 334 72 493 -36 162 -131 313 -261 412 -87 66
-272 157 -430 213 -402 140 -557 319 -558 644 0 180 45 299 157 410 125 124
283 183 461 171 182 -11 285 -54 396 -165 54 -55 85 -95 107 -143 19 -40 38
-68 47 -68 18 0 95 47 95 58 0 4 -21 43 -47 87 -132 226 -351 346 -632 344
-80 0 -138 -6 -187 -19z"/>
<path d="M16190 10165 c-8 -2 -49 -9 -90 -15 -401 -64 -788 -351 -983 -729
-110 -213 -152 -389 -152 -641 0 -192 12 -271 66 -440 158 -496 612 -873 1134
-941 114 -15 375 -6 474 16 264 59 497 184 686 370 288 284 427 635 412 1045
-10 278 -77 491 -225 716 -202 306 -512 518 -875 599 -66 15 -404 30 -447 20z
m425 -134 c491 -107 874 -498 982 -1004 24 -114 24 -380 0 -494 -70 -331 -253
-609 -526 -803 -147 -104 -281 -163 -461 -203 -128 -28 -375 -30 -500 -4 -257
55 -455 163 -646 352 -497 492 -510 1273 -30 1783 204 215 465 352 752 391
102 14 324 5 429 -18z"/>
<path d="M5595 10128 c-3 -7 -4 -618 -3 -1358 l3 -1345 50 0 50 0 3 1303 2
1302 345 0 c375 0 500 -9 611 -44 185 -59 347 -198 433 -372 51 -105 72 -189
78 -319 12 -254 -62 -444 -237 -608 -143 -134 -296 -192 -542 -203 -126 -7
-139 -9 -136 -25 3 -17 787 -987 828 -1024 25 -23 133 -18 138 7 3 13 -199
263 -710 880 l-39 47 38 6 c224 34 386 112 527 251 193 191 285 452 255 724
-34 302 -209 558 -474 690 -184 93 -189 93 -738 98 -388 3 -478 1 -482 -10z"/>
<path d="M12527 10108 c-410 -989 -1088 -2661 -1084 -2673 5 -11 21 -15 60
-15 l54 0 151 373 c83 204 170 418 193 475 l41 102 646 -2 646 -3 191 -470
191 -470 57 -3 c44 -2 59 1 63 12 5 12 -1045 2585 -1092 2679 -13 23 -21 27
-59 27 -41 0 -46 -3 -58 -32z m362 -890 l297 -733 -298 -3 c-164 -1 -432 -1
-596 0 l-299 3 296 737 c163 405 297 735 299 733 2 -2 137 -333 301 -737z"/>
<path d="M19146 10125 c-9 -25 -7 -2678 3 -2693 5 -9 25 -12 57 -10 l49 3 0
1355 0 1355 -51 3 c-40 2 -53 -1 -58 -13z"/>
<path d="M20785 10128 c-3 -7 -4 -618 -3 -1358 l3 -1345 53 -3 c28 -2 53 -2
54 0 2 2 5 566 8 1254 l5 1251 850 -1240 c468 -682 856 -1246 863 -1253 20
-21 128 -19 136 2 9 24 7 2677 -3 2692 -5 9 -25 12 -57 10 l-49 -3 -5 -1261
-5 -1260 -860 1260 -861 1261 -62 3 c-44 2 -64 -1 -67 -10z"/>
<path d="M27266 10125 c-9 -25 -7 -2678 3 -2693 5 -9 25 -12 57 -10 l49 3 0
1355 0 1355 -51 3 c-40 2 -53 -1 -58 -13z"/>
<path d="M28905 10128 c-3 -7 -4 -618 -3 -1358 l3 -1345 46 -3 c30 -2 50 2 57
11 9 10 13 332 14 1254 l3 1241 555 -789 555 -789 45 2 45 3 555 788 555 788
5 -1253 c3 -689 6 -1254 8 -1256 1 -2 26 -2 55 0 l52 3 0 1355 0 1355 -56 3
c-55 3 -57 2 -86 -35 -16 -21 -276 -390 -577 -821 -302 -431 -553 -781 -557
-780 -5 2 -267 370 -582 818 l-573 815 -57 3 c-40 2 -59 -1 -62 -10z"/>
<path d="M33371 8793 c-303 -740 -550 -1352 -547 -1360 4 -10 21 -13 62 -11
l56 3 192 472 191 473 645 0 646 0 191 -472 192 -473 58 0 c46 0 58 3 61 17 2
9 -245 620 -549 1357 l-552 1341 -47 0 -47 0 -552 -1347z m899 430 c162 -399
297 -730 298 -735 2 -4 -264 -8 -592 -8 -328 0 -596 3 -596 8 0 13 585 1462
590 1462 3 0 138 -327 300 -727z"/>
<path d="M2912 8773 l3 -1348 635 0 635 0 3 53 3 52 -580 0 -581 0 0 420 0
420 493 2 492 3 3 53 3 52 -495 0 -496 0 0 765 0 765 558 2 557 3 0 50 0 50
-618 3 -617 2 2 -1347z"/>
<path d="M8382 10068 l3 -53 452 -3 453 -2 2 -1293 3 -1292 49 -3 c32 -2 52 1
57 10 5 7 9 590 9 1296 l0 1282 449 0 c489 0 461 -3 461 55 0 59 78 55 -977
55 l-964 0 3 -52z"/>
<path d="M24046 10104 c-8 -20 -8 -58 0 -78 5 -14 55 -16 455 -16 l449 0 0
-1282 c0 -706 4 -1289 9 -1296 5 -9 25 -12 57 -10 l49 3 3 1292 2 1293 453 2
452 3 0 50 0 50 -961 3 c-871 2 -962 1 -968 -14z"/>
<path d="M27893 3635 c-1081 -1799 -1972 -3278 -1978 -3288 -11 -15 -29 10
-140 190 -460 744 -1041 1702 -2050 3378 -298 495 -665 1104 -815 1353 l-274
452 -108 0 -107 0 786 -1307 c432 -720 1071 -1782 1419 -2361 348 -579 629
-1050 625 -1048 -4 3 -1180 1277 -2612 2831 l-2604 2825 -110 0 c-60 0 -115
-4 -121 -8 -7 -4 1153 -1272 3047 -3327 1682 -1826 3062 -3321 3066 -3322 8
-3 4124 4488 4131 4507 2 6 -240 23 -243 17 -5 -7 -3247 -3541 -3282 -3577
-32 -33 443 767 1751 2948 988 1647 1796 2995 1796 2997 0 2 -47 5 -105 7
l-105 3 -1967 -3270z"/>
<path d="M5400 6641 c-122 -38 -221 -153 -251 -291 -7 -31 -9 -98 -7 -156 4
-90 9 -111 36 -167 40 -80 101 -138 178 -167 51 -19 73 -21 159 -18 103 5 157
22 169 53 12 32 7 360 -6 373 -8 8 -49 12 -118 12 -117 0 -130 -6 -130 -56 0
-60 6 -64 81 -64 l69 0 0 -99 c0 -111 1 -111 -89 -111 -97 0 -171 44 -212 127
-20 41 -24 63 -24 158 0 95 3 116 23 157 33 67 85 113 151 134 53 16 61 17
135 1 44 -9 83 -14 88 -11 4 3 8 27 8 54 0 47 -1 48 -40 64 -42 17 -173 21
-220 7z"/>
<path d="M6712 6637 c-49 -15 -129 -92 -159 -151 -39 -77 -53 -141 -53 -248 0
-195 81 -340 219 -386 19 -7 61 -12 95 -12 144 0 260 114 297 290 17 81 6 231
-22 310 -30 82 -121 179 -185 198 -49 14 -146 14 -192 -1z m161 -111 c43 -18
81 -61 109 -121 19 -42 22 -68 23 -160 0 -94 -3 -117 -23 -160 -55 -120 -148
-163 -248 -114 -87 42 -131 153 -121 309 6 96 22 143 69 196 54 61 123 79 191
50z"/>
<path d="M8035 6632 c-82 -40 -125 -112 -125 -212 0 -111 50 -171 177 -214
134 -46 153 -63 153 -138 0 -52 -21 -85 -66 -104 -48 -20 -85 -17 -171 11 -46
16 -80 22 -85 17 -5 -5 -8 -31 -6 -57 3 -45 6 -50 42 -68 50 -26 178 -35 243
-17 60 17 127 81 142 135 16 57 14 139 -4 183 -30 70 -72 100 -199 142 -88 29
-116 55 -116 110 0 113 95 150 235 90 64 -28 75 -22 75 39 0 49 -1 51 -42 73
-61 31 -197 36 -253 10z"/>
<path d="M10085 6632 c-82 -39 -125 -112 -125 -210 0 -112 48 -173 167 -212
141 -47 171 -77 160 -161 -13 -97 -103 -122 -254 -69 -31 11 -61 16 -66 11 -4
-4 -7 -30 -5 -57 3 -46 5 -50 43 -68 26 -13 68 -21 123 -24 167 -9 258 63 269
213 10 128 -46 200 -196 250 -109 36 -131 54 -131 111 0 118 93 155 235 94 64
-28 75 -22 75 39 0 49 -1 51 -42 73 -61 31 -197 36 -253 10z"/>
<path d="M13945 6632 c-82 -40 -125 -112 -125 -212 0 -111 50 -171 177 -214
134 -46 153 -63 153 -138 0 -52 -21 -85 -66 -104 -48 -20 -85 -17 -171 11 -46
16 -80 22 -85 17 -5 -5 -8 -31 -6 -57 3 -45 6 -50 42 -68 50 -26 178 -35 243
-17 60 17 127 81 142 135 16 57 14 139 -4 183 -30 70 -72 100 -199 142 -88 29
-116 55 -116 110 0 113 95 150 235 90 64 -28 75 -22 75 39 0 49 -1 51 -42 73
-61 31 -197 36 -253 10z"/>
<path d="M18780 6639 c-143 -60 -188 -267 -81 -369 27 -26 63 -44 127 -65 118
-39 144 -64 144 -140 0 -47 -4 -60 -25 -79 -46 -43 -109 -46 -210 -12 -85 29
-97 23 -93 -43 3 -46 3 -46 58 -68 61 -25 168 -30 233 -12 49 13 105 63 128
114 23 49 25 158 4 207 -21 51 -73 92 -156 123 -127 48 -137 53 -149 76 -19
34 -7 107 23 136 37 38 97 41 187 9 41 -14 78 -22 83 -17 4 4 7 30 5 57 -3 46
-5 50 -43 69 -46 22 -194 32 -235 14z"/>
<path d="M566 6631 c-16 -26 -257 -745 -254 -759 2 -13 15 -18 49 -20 l46 -3
44 126 44 125 117 0 116 0 33 -97 c48 -149 51 -153 104 -153 24 0 47 4 50 10
5 8 -209 647 -251 748 -12 28 -17 32 -53 32 -22 0 -42 -4 -45 -9z m82 -409
c-21 -2 -55 -2 -77 0 l-38 3 34 90 c18 50 36 97 39 105 4 9 22 -30 43 -90 l36
-105 -37 -3z"/>
<path d="M1696 6624 c-9 -24 -7 -747 3 -762 5 -9 24 -12 52 -10 l44 3 3 158 3
158 26 -3 c23 -2 45 -29 133 -158 l105 -155 48 -3 c70 -5 69 12 -4 125 -34 54
-77 121 -96 150 l-33 52 36 17 c69 33 115 121 115 219 0 75 -17 119 -62 161
-56 51 -104 64 -243 64 -104 0 -125 -3 -130 -16z m276 -120 c15 -8 33 -24 39
-36 16 -29 6 -123 -14 -146 -23 -25 -82 -42 -146 -42 l-51 0 0 126 0 126 73
-7 c39 -4 84 -14 99 -21z"/>
<path d="M2906 6624 c-3 -9 -6 -31 -6 -49 0 -46 20 -55 124 -55 l86 0 0 -319
c0 -176 3 -326 6 -335 4 -12 20 -16 55 -16 l49 0 0 335 0 335 91 0 c109 0 129
8 129 55 0 69 15 65 -270 65 -226 0 -259 -2 -264 -16z"/>
<path d="M4216 6625 c-9 -25 -7 -748 3 -763 5 -9 24 -12 52 -10 l44 3 0 390 0
390 -46 3 c-36 2 -48 -1 -53 -13z"/>
<path d="M11215 6628 c-3 -7 -4 -184 -3 -393 l3 -380 212 -3 213 -2 6 24 c3
13 4 37 2 52 l-3 29 -162 3 -163 2 0 120 0 120 140 0 140 0 0 55 0 55 -140 0
-140 0 0 110 0 109 153 3 152 3 0 50 0 50 -203 3 c-157 2 -204 0 -207 -10z"/>
<path d="M12465 6628 c-3 -7 -4 -184 -3 -393 l3 -380 50 0 50 0 3 280 3 280
42 -65 c23 -36 98 -163 167 -283 l124 -217 43 0 43 0 0 395 0 395 -50 0 -50 0
-2 -275 -3 -275 -166 272 -166 273 -41 3 c-28 2 -44 -1 -47 -10z"/>
<path d="M15074 6627 c-3 -8 -4 -145 -1 -304 4 -318 7 -336 66 -405 47 -55
100 -78 181 -78 95 0 138 15 187 66 68 70 75 106 80 416 3 147 3 278 -1 292
-6 24 -11 26 -55 26 l-49 0 -4 -292 c-3 -273 -4 -295 -23 -328 -52 -88 -187
-92 -249 -7 -20 27 -21 45 -26 325 l-5 297 -48 3 c-34 2 -49 -1 -53 -11z"/>
<path d="M16605 6623 c-43 -110 -255 -750 -251 -760 4 -10 20 -13 53 -11 l47
3 42 120 42 120 117 0 117 0 42 -120 42 -120 47 -3 c35 -2 49 1 53 12 4 11
-196 614 -251 759 -5 12 -18 17 -50 17 -31 0 -45 -5 -50 -17z m125 -400 c0 -2
-34 -3 -76 -3 -55 0 -75 3 -72 13 2 6 19 56 38 109 l35 97 37 -107 c20 -59 37
-108 38 -109z"/>
<path d="M17725 6627 c-3 -6 -4 -183 -3 -392 l3 -380 50 0 50 0 3 370 c1 204
0 380 -3 393 -5 19 -12 22 -51 22 -26 0 -47 -5 -49 -13z"/>
</g>
</svg>
